<svg width="225" height="42" viewBox="0 0 225 42" fill="none" xmlns="http://www.w3.org/2000/svg">
<rect x="2" y="2" width="38" height="38" rx="19" fill="url(#paint0_linear_1803_21)"/>
<path d="M21.148 9.57534C22.5647 9.57534 23.817 9.734 24.905 10.0513C26.0043 10.3573 26.8883 10.686 27.557 11.0373C28.2257 11.3773 28.6337 11.604 28.781 11.7173L25.959 16.4773C25.7777 16.33 25.466 16.1317 25.024 15.8823C24.582 15.633 24.072 15.412 23.494 15.2193C22.9273 15.0153 22.3607 14.9133 21.794 14.9133C21.0687 14.9133 20.4737 15.0323 20.009 15.2703C19.5557 15.497 19.329 15.854 19.329 16.3413C19.329 16.6813 19.4537 16.9873 19.703 17.2593C19.9523 17.5313 20.349 17.8033 20.893 18.0753C21.4483 18.3473 22.1793 18.642 23.086 18.9593C23.936 19.254 24.7237 19.611 25.449 20.0303C26.1857 20.4497 26.826 20.9483 27.37 21.5263C27.914 22.1043 28.339 22.7673 28.645 23.5153C28.9623 24.2633 29.121 25.1077 29.121 26.0483C29.121 27.2497 28.8717 28.281 28.373 29.1423C27.8857 29.9923 27.2227 30.6893 26.384 31.2333C25.5567 31.7773 24.6217 32.1797 23.579 32.4403C22.5363 32.701 21.471 32.8313 20.383 32.8313C18.7737 32.8313 17.3343 32.6557 16.065 32.3043C14.807 31.9417 13.787 31.5507 13.005 31.1313C12.2343 30.712 11.7697 30.423 11.611 30.2643L14.518 25.3173C14.6427 25.4193 14.909 25.5837 15.317 25.8103C15.725 26.037 16.2123 26.275 16.779 26.5243C17.357 26.7737 17.9633 26.9833 18.598 27.1533C19.2327 27.3233 19.8333 27.4083 20.4 27.4083C21.2613 27.4083 21.9017 27.2667 22.321 26.9833C22.7403 26.6887 22.95 26.2863 22.95 25.7763C22.95 25.4023 22.8197 25.068 22.559 24.7733C22.2983 24.4673 21.8733 24.167 21.284 23.8723C20.6947 23.5663 19.907 23.2263 18.921 22.8523C17.9463 22.4783 17.0283 22.0137 16.167 21.4583C15.317 20.8917 14.62 20.1663 14.076 19.2823C13.5433 18.3983 13.277 17.299 13.277 15.9843C13.277 14.6583 13.6453 13.5193 14.382 12.5673C15.13 11.604 16.1047 10.8673 17.306 10.3573C18.5073 9.836 19.788 9.57534 21.148 9.57534Z" fill="white"/>
<path d="M52.3106 8.79482C53.6593 8.79482 54.8323 8.94782 55.8296 9.25382C56.8383 9.54849 57.6373 9.86582 58.2266 10.2058C58.8273 10.5458 59.19 10.7668 59.3146 10.8688L57.2406 14.3198C57.0593 14.1725 56.7476 13.9685 56.3056 13.7078C55.875 13.4358 55.3536 13.1978 54.7416 12.9938C54.1296 12.7785 53.4666 12.6708 52.7526 12.6708C51.7213 12.6708 50.894 12.8692 50.2706 13.2658C49.6586 13.6512 49.3526 14.2122 49.3526 14.9488C49.3526 15.4475 49.517 15.8952 49.8456 16.2918C50.1743 16.6772 50.656 17.0398 51.2906 17.3798C51.9366 17.7198 52.7243 18.0768 53.6536 18.4508C54.4696 18.7682 55.246 19.1365 55.9826 19.5558C56.7306 19.9752 57.3936 20.4682 57.9716 21.0348C58.561 21.6015 59.0256 22.2588 59.3656 23.0068C59.717 23.7548 59.8926 24.6105 59.8926 25.5738C59.8926 26.6505 59.6716 27.5912 59.2296 28.3958C58.799 29.2005 58.1983 29.8748 57.4276 30.4188C56.6683 30.9628 55.7956 31.3708 54.8096 31.6428C53.8236 31.9148 52.7866 32.0508 51.6986 32.0508C50.2253 32.0508 48.8993 31.8808 47.7206 31.5408C46.5533 31.1895 45.607 30.8155 44.8816 30.4188C44.1563 30.0222 43.7313 29.7672 43.6066 29.6538L45.7826 26.0668C45.9186 26.1688 46.1736 26.3332 46.5476 26.5598C46.933 26.7865 47.3976 27.0188 47.9416 27.2568C48.497 27.4948 49.0976 27.6988 49.7436 27.8688C50.401 28.0388 51.0696 28.1238 51.7496 28.1238C52.9736 28.1238 53.8973 27.8688 54.5206 27.3588C55.144 26.8488 55.4556 26.1858 55.4556 25.3698C55.4556 24.7578 55.2573 24.2195 54.8606 23.7548C54.464 23.2902 53.903 22.8652 53.1776 22.4798C52.4636 22.0832 51.608 21.6808 50.6106 21.2728C49.6133 20.8535 48.684 20.3662 47.8226 19.8108C46.9726 19.2442 46.287 18.5528 45.7656 17.7368C45.2443 16.9095 44.9836 15.8952 44.9836 14.6938C44.9836 13.5038 45.318 12.4668 45.9866 11.5828C46.6666 10.6988 47.562 10.0132 48.6726 9.52582C49.7946 9.03849 51.0073 8.79482 52.3106 8.79482ZM61.9956 17.6858H64.5116V11.9568H68.7956V17.6858H72.0936V21.2728H68.7956V26.3218C68.7956 26.9905 68.9032 27.5118 69.1186 27.8858C69.3339 28.2485 69.6739 28.4298 70.1386 28.4298C70.4899 28.4298 70.7789 28.3618 71.0056 28.2258C71.2322 28.0785 71.3682 27.9765 71.4136 27.9198L72.9436 31.0138C72.8756 31.0818 72.6546 31.2008 72.2806 31.3708C71.9179 31.5408 71.4476 31.6938 70.8696 31.8298C70.3029 31.9772 69.6626 32.0508 68.9486 32.0508C67.6679 32.0508 66.6082 31.6825 65.7696 30.9458C64.9309 30.1978 64.5116 29.0418 64.5116 27.4778V21.2728H61.9956V17.6858ZM79.1855 24.3668C79.1855 25.6135 79.4348 26.6108 79.9335 27.3588C80.4322 28.0955 81.2368 28.4638 82.3475 28.4638C83.4695 28.4638 84.2798 28.0955 84.7785 27.3588C85.2772 26.6108 85.5265 25.6135 85.5265 24.3668V17.6858H89.7765V24.8598C89.7765 26.2992 89.4875 27.5628 88.9095 28.6508C88.3315 29.7275 87.4872 30.5662 86.3765 31.1668C85.2772 31.7562 83.9342 32.0508 82.3475 32.0508C80.7722 32.0508 79.4292 31.7562 78.3185 31.1668C77.2192 30.5662 76.3805 29.7275 75.8025 28.6508C75.2245 27.5628 74.9355 26.2992 74.9355 24.8598V17.6858H79.1855V24.3668ZM99.3196 32.0508C97.9936 32.0508 96.8263 31.7335 95.8176 31.0988C94.8203 30.4528 94.0383 29.5745 93.4716 28.4638C92.9163 27.3418 92.6386 26.0782 92.6386 24.6728C92.6386 23.2675 92.9163 22.0095 93.4716 20.8988C94.0383 19.7768 94.8203 18.8928 95.8176 18.2468C96.8263 17.6008 97.9936 17.2778 99.3196 17.2778C100.26 17.2778 101.093 17.4308 101.819 17.7368C102.555 18.0428 103.145 18.4055 103.587 18.8248C104.029 19.2442 104.289 19.6182 104.369 19.9468V8.25082H108.704V31.6428H104.42V29.2118C104.238 29.6085 103.904 30.0278 103.417 30.4698C102.929 30.9118 102.334 31.2858 101.632 31.5918C100.929 31.8978 100.158 32.0508 99.3196 32.0508ZM100.544 28.6168C101.269 28.6168 101.921 28.4525 102.499 28.1238C103.077 27.7838 103.53 27.3192 103.859 26.7298C104.199 26.1292 104.369 25.4435 104.369 24.6728C104.369 23.9022 104.199 23.2222 103.859 22.6328C103.53 22.0322 103.077 21.5618 102.499 21.2218C101.921 20.8818 101.269 20.7118 100.544 20.7118C99.8749 20.7118 99.2629 20.8818 98.7076 21.2218C98.1523 21.5505 97.7046 22.0152 97.3646 22.6158C97.0359 23.2052 96.8716 23.8908 96.8716 24.6728C96.8716 25.4548 97.0359 26.1462 97.3646 26.7468C97.7046 27.3362 98.1523 27.7952 98.7076 28.1238C99.2629 28.4525 99.8749 28.6168 100.544 28.6168ZM118.357 27.8518L122.488 17.6858H126.755L117.218 38.7148H112.883L116.096 31.6428L110.299 17.6858H114.617L118.357 27.8518ZM130.925 11.0728L131.027 11.0898V31.6428H129.123V9.20282H131.928L144.746 29.7558L144.661 29.7728V9.20282H146.548V31.6428H143.726L130.925 11.0728ZM157.486 32.0508C156.092 32.0508 154.851 31.7278 153.763 31.0818C152.687 30.4245 151.837 29.5405 151.213 28.4298C150.601 27.3192 150.295 26.0782 150.295 24.7068C150.295 23.3355 150.601 22.0888 151.213 20.9668C151.837 19.8335 152.687 18.9382 153.763 18.2808C154.851 17.6122 156.092 17.2778 157.486 17.2778C158.88 17.2778 160.11 17.6122 161.175 18.2808C162.252 18.9382 163.096 19.8335 163.708 20.9668C164.32 22.0888 164.626 23.3355 164.626 24.7068C164.626 26.0782 164.32 27.3192 163.708 28.4298C163.096 29.5405 162.252 30.4245 161.175 31.0818C160.11 31.7278 158.88 32.0508 157.486 32.0508ZM157.486 30.2998C158.54 30.2998 159.458 30.0562 160.24 29.5688C161.034 29.0815 161.646 28.4128 162.076 27.5628C162.518 26.7128 162.739 25.7608 162.739 24.7068C162.739 23.6415 162.518 22.6838 162.076 21.8338C161.646 20.9725 161.034 20.2925 160.24 19.7938C159.458 19.2838 158.54 19.0288 157.486 19.0288C156.421 19.0288 155.492 19.2838 154.698 19.7938C153.905 20.2925 153.287 20.9725 152.845 21.8338C152.403 22.6838 152.182 23.6415 152.182 24.7068C152.182 25.7608 152.403 26.7128 152.845 27.5628C153.287 28.4128 153.905 29.0815 154.698 29.5688C155.492 30.0562 156.421 30.2998 157.486 30.2998ZM166.943 17.6858H169.85V11.9568H171.771V17.6858H175.579V19.4368H171.771V27.7158C171.771 28.6452 171.941 29.3082 172.281 29.7048C172.621 30.1015 173.046 30.2998 173.556 30.2998C174.044 30.2998 174.412 30.2148 174.661 30.0448C174.911 29.8748 175.058 29.7615 175.103 29.7048L176.004 31.1838C175.936 31.2405 175.783 31.3425 175.545 31.4898C175.307 31.6258 174.996 31.7505 174.61 31.8638C174.225 31.9885 173.76 32.0508 173.216 32.0508C172.276 32.0508 171.477 31.7505 170.819 31.1498C170.173 30.5378 169.85 29.5632 169.85 28.2258V19.4368H166.943V17.6858ZM179.282 31.6428V17.6858H181.203V31.6428H179.282ZM180.268 12.0248C179.86 12.0248 179.509 11.8832 179.214 11.5998C178.931 11.3052 178.789 10.9538 178.789 10.5458C178.789 10.1265 178.936 9.77515 179.231 9.49182C179.526 9.19715 179.871 9.04982 180.268 9.04982C180.54 9.04982 180.789 9.11782 181.016 9.25382C181.254 9.38982 181.441 9.57115 181.577 9.79782C181.724 10.0132 181.798 10.2625 181.798 10.5458C181.798 10.9538 181.645 11.3052 181.339 11.5998C181.044 11.8832 180.687 12.0248 180.268 12.0248ZM192.35 32.0508C190.956 32.0508 189.715 31.7278 188.627 31.0818C187.55 30.4245 186.7 29.5405 186.077 28.4298C185.465 27.3192 185.159 26.0782 185.159 24.7068C185.159 23.3355 185.465 22.0888 186.077 20.9668C186.7 19.8335 187.55 18.9382 188.627 18.2808C189.715 17.6122 190.956 17.2778 192.35 17.2778C193.744 17.2778 194.973 17.6122 196.039 18.2808C197.115 18.9382 197.96 19.8335 198.572 20.9668C199.184 22.0888 199.49 23.3355 199.49 24.7068C199.49 26.0782 199.184 27.3192 198.572 28.4298C197.96 29.5405 197.115 30.4245 196.039 31.0818C194.973 31.7278 193.744 32.0508 192.35 32.0508ZM192.35 30.2998C193.404 30.2998 194.322 30.0562 195.104 29.5688C195.897 29.0815 196.509 28.4128 196.94 27.5628C197.382 26.7128 197.603 25.7608 197.603 24.7068C197.603 23.6415 197.382 22.6838 196.94 21.8338C196.509 20.9725 195.897 20.2925 195.104 19.7938C194.322 19.2838 193.404 19.0288 192.35 19.0288C191.284 19.0288 190.355 19.2838 189.562 19.7938C188.768 20.2925 188.151 20.9725 187.709 21.8338C187.267 22.6838 187.046 23.6415 187.046 24.7068C187.046 25.7608 187.267 26.7128 187.709 27.5628C188.151 28.4128 188.768 29.0815 189.562 29.5688C190.355 30.0562 191.284 30.2998 192.35 30.2998ZM209.967 17.2778C210.851 17.2778 211.712 17.4705 212.551 17.8558C213.389 18.2298 214.081 18.8305 214.625 19.6578C215.169 20.4738 215.441 21.5335 215.441 22.8368V31.6428H213.469V23.2958C213.469 21.7432 213.106 20.6268 212.381 19.9468C211.655 19.2555 210.726 18.9098 209.593 18.9098C208.845 18.9098 208.119 19.1252 207.417 19.5558C206.725 19.9865 206.153 20.5758 205.7 21.3238C205.258 22.0718 205.037 22.9105 205.037 23.8398V31.6428H203.099V17.6858H205.037V20.3718C205.116 19.9752 205.382 19.5388 205.836 19.0628C206.3 18.5755 206.89 18.1562 207.604 17.8048C208.329 17.4535 209.117 17.2778 209.967 17.2778Z" fill="black"/>
<defs>
<linearGradient id="paint0_linear_1803_21" x1="21" y1="2" x2="21" y2="40" gradientUnits="userSpaceOnUse">
<stop stop-color="#2FB97D"/>
<stop offset="1" stop-color="#1AB69D"/>
</linearGradient>
</defs>
</svg>
