<svg width="34" height="34" viewBox="0 0 34 34" fill="none" xmlns="http://www.w3.org/2000/svg">
<rect width="34" height="34" rx="17" fill="url(#paint0_linear_1803_10)"/>
<path d="M17.1393 5.91934C18.4726 5.91934 19.6513 6.06867 20.6753 6.36734C21.7099 6.65534 22.5419 6.96467 23.1713 7.29534C23.8006 7.61534 24.1846 7.82867 24.3233 7.93534L21.6673 12.4153C21.4966 12.2767 21.2033 12.09 20.7873 11.8553C20.3713 11.6207 19.8913 11.4127 19.3473 11.2313C18.8139 11.0393 18.2806 10.9433 17.7473 10.9433C17.0646 10.9433 16.5046 11.0553 16.0673 11.2793C15.6406 11.4927 15.4273 11.8287 15.4273 12.2873C15.4273 12.6073 15.5446 12.8953 15.7793 13.1513C16.0139 13.4073 16.3873 13.6633 16.8993 13.9193C17.4219 14.1753 18.1099 14.4527 18.9633 14.7513C19.7633 15.0287 20.5046 15.3647 21.1873 15.7593C21.8806 16.154 22.4833 16.6233 22.9953 17.1673C23.5073 17.7113 23.9073 18.3353 24.1953 19.0393C24.4939 19.7433 24.6433 20.538 24.6433 21.4233C24.6433 22.554 24.4086 23.5247 23.9393 24.3353C23.4806 25.1353 22.8566 25.7913 22.0673 26.3033C21.2886 26.8153 20.4086 27.194 19.4273 27.4393C18.4459 27.6847 17.4433 27.8073 16.4193 27.8073C14.9046 27.8073 13.5499 27.642 12.3553 27.3113C11.1713 26.97 10.2113 26.602 9.47526 26.2073C8.74993 25.8127 8.3126 25.5407 8.16326 25.3913L10.8993 20.7353C11.0166 20.8313 11.2673 20.986 11.6513 21.1993C12.0353 21.4127 12.4939 21.6367 13.0273 21.8713C13.5713 22.106 14.1419 22.3033 14.7393 22.4633C15.3366 22.6233 15.9019 22.7033 16.4353 22.7033C17.2459 22.7033 17.8486 22.57 18.2433 22.3033C18.6379 22.026 18.8353 21.6473 18.8353 21.1673C18.8353 20.8153 18.7126 20.5007 18.4673 20.2233C18.2219 19.9353 17.8219 19.6527 17.2673 19.3753C16.7126 19.0873 15.9713 18.7673 15.0433 18.4153C14.1259 18.0633 13.2619 17.626 12.4513 17.1033C11.6513 16.57 10.9953 15.8873 10.4833 15.0553C9.98193 14.2233 9.73126 13.1887 9.73126 11.9513C9.73126 10.7033 10.0779 9.63134 10.7713 8.73534C11.4753 7.82867 12.3926 7.13534 13.5233 6.65534C14.6539 6.16467 15.8593 5.91934 17.1393 5.91934Z" fill="white"/>
<defs>
<linearGradient id="paint0_linear_1803_10" x1="17" y1="0" x2="17" y2="34" gradientUnits="userSpaceOnUse">
<stop stop-color="#2FB97D"/>
<stop offset="1" stop-color="#1AB69D"/>
</linearGradient>
</defs>
</svg>
